<svg xmlns="http://www.w3.org/2000/svg" width="640" height="360" viewBox="0 0 640 360" fill="none">
  <!-- sky/background -->
  <rect width="640" height="360" fill="#7ec850"/>
  <!-- ground stripe -->
  <rect x="0" y="220" width="640" height="140" fill="#5a9e35"/>
  <!-- holes -->
  <ellipse cx="120" cy="230" rx="56" ry="22" fill="#2d4a1e"/>
  <ellipse cx="320" cy="230" rx="56" ry="22" fill="#2d4a1e"/>
  <ellipse cx="520" cy="230" rx="56" ry="22" fill="#2d4a1e"/>
  <ellipse cx="120" cy="310" rx="56" ry="22" fill="#2d4a1e"/>
  <ellipse cx="320" cy="310" rx="56" ry="22" fill="#2d4a1e"/>
  <ellipse cx="520" cy="310" rx="56" ry="22" fill="#2d4a1e"/>
  <!-- mole popping up from center hole -->
  <ellipse cx="320" cy="218" rx="38" ry="42" fill="#c8845a"/>
  <circle cx="308" cy="202" r="6" fill="#2d1a0e"/>
  <circle cx="332" cy="202" r="6" fill="#2d1a0e"/>
  <ellipse cx="320" cy="214" rx="12" ry="8" fill="#e8a07a"/>
  <circle cx="314" cy="213" r="2" fill="#2d1a0e"/>
  <circle cx="326" cy="213" r="2" fill="#2d1a0e"/>
  <!-- star particles (hit effect) -->
  <text x="370" y="190" fill="#ffd60a" font-family="sans-serif" font-size="20">✨</text>
  <text x="260" y="185" fill="#ffd60a" font-family="sans-serif" font-size="16">✨</text>
  <!-- score popup -->
  <text x="280" y="165" fill="#ff3b30" font-family="sans-serif" font-size="20" font-weight="700">+30</text>
  <!-- hammer -->
  <rect x="395" y="150" width="18" height="40" rx="4" fill="#8b6333"/>
  <rect x="382" y="140" width="44" height="26" rx="6" fill="#5a3a1a"/>
  <!-- golden mole in right hole -->
  <ellipse cx="520" cy="302" rx="32" ry="32" fill="#ffd60a"/>
  <circle cx="510" cy="294" r="5" fill="#2d1a0e"/>
  <circle cx="530" cy="294" r="5" fill="#2d1a0e"/>
  <!-- fever badge -->
  <rect x="20" y="20" width="130" height="36" rx="18" fill="#ff3b30"/>
  <text x="85" y="43" text-anchor="middle" fill="white" font-family="sans-serif" font-size="16" font-weight="700">🔥 FEVER!</text>
  <!-- title -->
  <text x="24" y="76" fill="#2d4a1e" font-family="sans-serif" font-size="28" font-weight="700">Mole Mania</text>
</svg>
