<svg xmlns="http://www.w3.org/2000/svg" width="640" height="360" viewBox="0 0 640 360" fill="none">
  <rect width="640" height="360" fill="#f8fafc"/>
  <!-- timer bar -->
  <rect x="40" y="20" width="560" height="32" rx="16" fill="#e2e8f0"/>
  <rect x="40" y="20" width="160" height="32" rx="16" fill="#22c55e"/>
  <text x="320" y="42" text-anchor="middle" fill="#334155" font-family="monospace" font-size="16" font-weight="700">00:12.48</text>
  <!-- 5x5 grid of number buttons -->
  <!-- row 1 -->
  <rect x="68"  y="68" width="86" height="50" rx="8" fill="#6366f1"/><text x="111" y="100" text-anchor="middle" fill="white" font-family="sans-serif" font-size="22" font-weight="700">17</text>
  <rect x="162" y="68" width="86" height="50" rx="8" fill="#e2e8f0"/><text x="205" y="100" text-anchor="middle" fill="#94a3b8" font-family="sans-serif" font-size="22">3</text>
  <!-- 3 is tapped -> faded -->
  <rect x="256" y="68" width="86" height="50" rx="8" fill="#e2e8f0"/><text x="299" y="100" text-anchor="middle" fill="#475569" font-family="sans-serif" font-size="22">21</text>
  <rect x="350" y="68" width="86" height="50" rx="8" fill="#22c55e"/><text x="393" y="100" text-anchor="middle" fill="white" font-family="sans-serif" font-size="22" font-weight="700">9</text>
  <!-- next to tap - highlighted -->
  <rect x="444" y="68" width="86" height="50" rx="8" fill="#e2e8f0"/><text x="487" y="100" text-anchor="middle" fill="#475569" font-family="sans-serif" font-size="22">14</text>
  <!-- row 2 -->
  <rect x="68"  y="126" width="86" height="50" rx="8" fill="#e2e8f0"/><text x="111" y="158" text-anchor="middle" fill="#475569" font-family="sans-serif" font-size="22">25</text>
  <rect x="162" y="126" width="86" height="50" rx="8" fill="#e2e8f0"/><text x="205" y="158" text-anchor="middle" fill="#475569" font-family="sans-serif" font-size="22">11</text>
  <rect x="256" y="126" width="86" height="50" rx="8" fill="#e2e8f0"/><text x="299" y="158" text-anchor="middle" fill="#475569" font-family="sans-serif" font-size="22">6</text>
  <rect x="350" y="126" width="86" height="50" rx="8" fill="#e2e8f0"/><text x="393" y="158" text-anchor="middle" fill="#475569" font-family="sans-serif" font-size="22">18</text>
  <rect x="444" y="126" width="86" height="50" rx="8" fill="#e2e8f0"/><text x="487" y="158" text-anchor="middle" fill="#475569" font-family="sans-serif" font-size="22">2</text>
  <!-- row 3 -->
  <rect x="68"  y="184" width="86" height="50" rx="8" fill="#e2e8f0"/><text x="111" y="216" text-anchor="middle" fill="#475569" font-family="sans-serif" font-size="22">13</text>
  <rect x="162" y="184" width="86" height="50" rx="8" fill="#e2e8f0"/><text x="205" y="216" text-anchor="middle" fill="#475569" font-family="sans-serif" font-size="22">22</text>
  <rect x="256" y="184" width="86" height="50" rx="8" fill="#e2e8f0"/><text x="299" y="216" text-anchor="middle" fill="#475569" font-family="sans-serif" font-size="22">5</text>
  <rect x="350" y="184" width="86" height="50" rx="8" fill="#e2e8f0"/><text x="393" y="216" text-anchor="middle" fill="#475569" font-family="sans-serif" font-size="22">19</text>
  <rect x="444" y="184" width="86" height="50" rx="8" fill="#e2e8f0"/><text x="487" y="216" text-anchor="middle" fill="#475569" font-family="sans-serif" font-size="22">8</text>
  <!-- NEW RECORD banner -->
  <rect x="68" y="255" width="504" height="46" rx="10" fill="#6366f1"/>
  <text x="320" y="284" text-anchor="middle" fill="white" font-family="sans-serif" font-size="20" font-weight="700">🏆 NEW RECORD!  00:12.48</text>
  <!-- title -->
  <text x="24" y="348" fill="#6366f1" font-family="sans-serif" font-size="26" font-weight="700">Num Hunt</text>
</svg>
