<svg xmlns="http://www.w3.org/2000/svg" width="640" height="360" viewBox="0 0 640 360" fill="none">
  <rect width="640" height="360" fill="#0f0f1a"/>
  <!-- falling words -->
  <!-- word 1: "thunder" - partially typed -->
  <rect x="60" y="45" width="180" height="44" rx="8" fill="#1e1e3a" stroke="#6366f1" stroke-width="1.5"/>
  <text x="150" y="73" text-anchor="middle" font-family="monospace" font-size="20">
    <tspan fill="#22c55e">thun</tspan><tspan fill="#a5b4fc" text-decoration="underline">d</tspan><tspan fill="#64748b">er</tspan>
  </text>
  <!-- word 2: "snake" - untouched -->
  <rect x="300" y="90" width="130" height="44" rx="8" fill="#1e1e3a" stroke="#334155" stroke-width="1"/>
  <text x="365" y="118" text-anchor="middle" fill="#94a3b8" font-family="monospace" font-size="20">snake</text>
  <!-- word 3: "perfect" - almost at bottom, urgent -->
  <rect x="440" y="180" width="160" height="44" rx="8" fill="#2a1a1a" stroke="#ef4444" stroke-width="2"/>
  <text x="520" y="208" text-anchor="middle" fill="#fca5a5" font-family="monospace" font-size="20">perfect</text>
  <!-- word 4: "light" - fresh -->
  <rect x="120" y="152" width="116" height="44" rx="8" fill="#1e1e3a" stroke="#334155" stroke-width="1"/>
  <text x="178" y="180" text-anchor="middle" fill="#94a3b8" font-family="monospace" font-size="20">light</text>
  <!-- word 5: "storm" -->
  <rect x="260" y="200" width="116" height="44" rx="8" fill="#1e1e3a" stroke="#334155" stroke-width="1"/>
  <text x="318" y="228" text-anchor="middle" fill="#94a3b8" font-family="monospace" font-size="20">storm</text>
  <!-- BLAZING popup -->
  <text x="480" y="140" fill="#f97316" font-family="sans-serif" font-size="18" font-weight="700">🔥 BLAZING!</text>
  <!-- combo -->
  <rect x="20" y="18" width="150" height="32" rx="16" fill="#f97316"/>
  <text x="95" y="39" text-anchor="middle" fill="white" font-family="sans-serif" font-size="14" font-weight="700">COMBO × 6</text>
  <!-- input field -->
  <rect x="40" y="290" width="560" height="46" rx="10" fill="#1e293b" stroke="#6366f1" stroke-width="2"/>
  <text x="60" y="319" fill="#22c55e" font-family="monospace" font-size="18">thund</text>
  <rect x="163" y="298" width="2" height="24" fill="#6366f1"/>
  <!-- title -->
  <text x="24" y="354" fill="#6366f1" font-family="sans-serif" font-size="26" font-weight="700">Typing Blitz</text>
</svg>
