<svg xmlns="http://www.w3.org/2000/svg" width="640" height="360" viewBox="0 0 640 360" fill="none">
  <rect width="640" height="360" fill="#0d0d1a"/>
  <!-- bricks row 1 -->
  <rect x="60"  y="40"  width="76" height="28" rx="4" fill="#3b82f6"/><rect x="144" y="40"  width="76" height="28" rx="4" fill="#3b82f6"/>
  <rect x="228" y="40"  width="76" height="28" rx="4" fill="#3b82f6"/><rect x="312" y="40"  width="76" height="28" rx="4" fill="#3b82f6"/>
  <rect x="396" y="40"  width="76" height="28" rx="4" fill="#3b82f6"/><rect x="480" y="40"  width="76" height="28" rx="4" fill="#3b82f6"/>
  <!-- row 2 -->
  <rect x="60"  y="76"  width="76" height="28" rx="4" fill="#22c55e"/><rect x="144" y="76"  width="76" height="28" rx="4" fill="#22c55e"/>
  <rect x="228" y="76"  width="76" height="28" rx="4" fill="#22c55e"/><rect x="312" y="76"  width="76" height="28" rx="4" fill="#22c55e"/>
  <rect x="396" y="76"  width="76" height="28" rx="4" fill="#22c55e"/><rect x="480" y="76"  width="76" height="28" rx="4" fill="#22c55e"/>
  <!-- row 3 (damaged) -->
  <rect x="60"  y="112" width="76" height="28" rx="4" fill="#ef4444"/><rect x="144" y="112" width="76" height="28" rx="4" fill="#ef4444"/>
  <rect x="312" y="112" width="76" height="28" rx="4" fill="#ef4444"/>
  <rect x="396" y="112" width="76" height="28" rx="4" fill="#ef4444"/><rect x="480" y="112" width="76" height="28" rx="4" fill="#ef4444"/>
  <!-- particles from destroyed brick -->
  <rect x="238" y="100" width="8" height="8" rx="2" fill="#ef4444" transform="rotate(30,242,104)"/>
  <rect x="262" y="90"  width="6" height="6" rx="1" fill="#ff6b6b" transform="rotate(-20,265,93)"/>
  <rect x="290" y="105" width="7" height="7" rx="2" fill="#ef4444" transform="rotate(45,293,108)"/>
  <rect x="252" y="115" width="5" height="5" rx="1" fill="#ff9999"/>
  <!-- ball -->
  <circle cx="310" cy="220" r="10" fill="#ffffff" filter="url(#bg)"/>
  <defs><filter id="bg"><feGaussianBlur stdDeviation="4" result="b"/><feMerge><feMergeNode in="b"/><feMergeNode in="SourceGraphic"/></feMerge></filter></defs>
  <!-- ball trail -->
  <circle cx="295" cy="234" r="6" fill="#ffffff" opacity="0.4"/>
  <circle cx="280" cy="248" r="4" fill="#ffffff" opacity="0.2"/>
  <!-- paddle -->
  <rect x="220" y="310" width="160" height="16" rx="8" fill="#6366f1" filter="url(#pg)"/>
  <defs><filter id="pg"><feGaussianBlur stdDeviation="3" result="b"/><feMerge><feMergeNode in="b"/><feMergeNode in="SourceGraphic"/></feMerge></filter></defs>
  <!-- power-up falling -->
  <rect x="450" y="175" width="30" height="30" rx="6" fill="#fbbf24" opacity="0.9"/>
  <text x="465" y="195" text-anchor="middle" fill="#0d0d1a" font-family="sans-serif" font-size="14" font-weight="700">💥</text>
  <!-- title -->
  <text x="24" y="350" fill="#6366f1" font-family="sans-serif" font-size="26" font-weight="700">Brick Blast</text>
  <text x="440" y="350" fill="#ef4444" font-family="sans-serif" font-size="14">❤️❤️❤️</text>
</svg>
