<svg xmlns="http://www.w3.org/2000/svg" viewBox="0 0 800 450" role="img" aria-labelledby="title desc">
  <title id="title">Gravity Four thumbnail</title>
  <desc id="desc">Blue board with red and yellow connect four style pieces</desc>
  <defs>
    <linearGradient id="bg" x1="0" y1="0" x2="1" y2="1">
      <stop offset="0%" stop-color="#0f172a"/>
      <stop offset="100%" stop-color="#1e3a8a"/>
    </linearGradient>
    <linearGradient id="board" x1="0" y1="0" x2="0" y2="1">
      <stop offset="0%" stop-color="#3b82f6"/>
      <stop offset="100%" stop-color="#1d4ed8"/>
    </linearGradient>
  </defs>
  <rect width="800" height="450" fill="url(#bg)"/>
  <rect x="180" y="60" width="440" height="330" rx="26" fill="url(#board)"/>
  <g transform="translate(215 95)">
    <g fill="#dbeafe">
      <circle cx="0" cy="0" r="26"/>
      <circle cx="70" cy="0" r="26"/>
      <circle cx="140" cy="0" r="26"/>
      <circle cx="210" cy="0" r="26"/>
      <circle cx="280" cy="0" r="26"/>
      <circle cx="350" cy="0" r="26"/>
      <circle cx="420" cy="0" r="26"/>
      <circle cx="0" cy="70" r="26"/>
      <circle cx="70" cy="70" r="26" fill="#ef4444"/>
      <circle cx="140" cy="70" r="26" fill="#facc15"/>
      <circle cx="210" cy="70" r="26"/>
      <circle cx="280" cy="70" r="26" fill="#ef4444"/>
      <circle cx="350" cy="70" r="26"/>
      <circle cx="420" cy="70" r="26"/>
      <circle cx="0" cy="140" r="26"/>
      <circle cx="70" cy="140" r="26" fill="#facc15"/>
      <circle cx="140" cy="140" r="26" fill="#ef4444"/>
      <circle cx="210" cy="140" r="26" fill="#facc15"/>
      <circle cx="280" cy="140" r="26" fill="#ef4444"/>
      <circle cx="350" cy="140" r="26"/>
      <circle cx="420" cy="140" r="26"/>
      <circle cx="0" cy="210" r="26"/>
      <circle cx="70" cy="210" r="26" fill="#ef4444"/>
      <circle cx="140" cy="210" r="26" fill="#facc15"/>
      <circle cx="210" cy="210" r="26" fill="#ef4444"/>
      <circle cx="280" cy="210" r="26" fill="#facc15"/>
      <circle cx="350" cy="210" r="26"/>
      <circle cx="420" cy="210" r="26"/>
      <circle cx="0" cy="280" r="26"/>
      <circle cx="70" cy="280" r="26" fill="#facc15"/>
      <circle cx="140" cy="280" r="26" fill="#ef4444"/>
      <circle cx="210" cy="280" r="26" fill="#facc15"/>
      <circle cx="280" cy="280" r="26" fill="#ef4444"/>
      <circle cx="350" cy="280" r="26"/>
      <circle cx="420" cy="280" r="26"/>
    </g>
  </g>
  <text x="36" y="408" fill="#bfdbfe" font-size="42" font-family="Inter, sans-serif" font-weight="700">Gravity Four</text>
</svg>
