<svg xmlns="http://www.w3.org/2000/svg" width="640" height="360" viewBox="0 0 640 360" fill="none">
  <rect width="640" height="360" fill="#faf8ef"/>
  <!-- grid bg -->
  <rect x="160" y="40" width="320" height="280" rx="12" fill="#bbada0"/>
  <!-- tiles -->
  <rect x="168" y="48" width="68" height="68" rx="6" fill="#eee4da"/><text x="202" y="89" text-anchor="middle" fill="#776e65" font-family="sans-serif" font-size="24" font-weight="700">2</text>
  <rect x="244" y="48" width="68" height="68" rx="6" fill="#ede0c8"/><text x="278" y="89" text-anchor="middle" fill="#776e65" font-family="sans-serif" font-size="24" font-weight="700">4</text>
  <rect x="320" y="48" width="68" height="68" rx="6" fill="#f2b179"/><text x="354" y="89" text-anchor="middle" fill="#f9f6f2" font-family="sans-serif" font-size="24" font-weight="700">8</text>
  <rect x="396" y="48" width="68" height="68" rx="6" fill="#f59563"/><text x="430" y="89" text-anchor="middle" fill="#f9f6f2" font-family="sans-serif" font-size="24" font-weight="700">16</text>
  <rect x="168" y="124" width="68" height="68" rx="6" fill="#f67c5f"/><text x="202" y="165" text-anchor="middle" fill="#f9f6f2" font-family="sans-serif" font-size="24" font-weight="700">32</text>
  <rect x="244" y="124" width="68" height="68" rx="6" fill="#f65e3b"/><text x="278" y="165" text-anchor="middle" fill="#f9f6f2" font-family="sans-serif" font-size="24" font-weight="700">64</text>
  <rect x="320" y="124" width="68" height="68" rx="6" fill="#edcf72"/><text x="354" y="165" text-anchor="middle" fill="#f9f6f2" font-family="sans-serif" font-size="20" font-weight="700">128</text>
  <rect x="396" y="124" width="68" height="68" rx="6" fill="#edcc61"/><text x="430" y="165" text-anchor="middle" fill="#f9f6f2" font-family="sans-serif" font-size="20" font-weight="700">256</text>
  <rect x="168" y="200" width="68" height="68" rx="6" fill="#edc850"/><text x="202" y="241" text-anchor="middle" fill="#f9f6f2" font-family="sans-serif" font-size="20" font-weight="700">512</text>
  <rect x="244" y="200" width="68" height="68" rx="6" fill="#edc22e"/><text x="278" y="241" text-anchor="middle" fill="#f9f6f2" font-family="sans-serif" font-size="16" font-weight="700">1024</text>
  <!-- 2048 tile highlighted -->
  <rect x="320" y="200" width="144" height="68" rx="6" fill="#edc22e" filter="url(#glow)"/>
  <defs><filter id="glow"><feGaussianBlur stdDeviation="6" result="b"/><feMerge><feMergeNode in="b"/><feMergeNode in="SourceGraphic"/></feMerge></filter></defs>
  <text x="392" y="241" text-anchor="middle" fill="#f9f6f2" font-family="sans-serif" font-size="28" font-weight="700">2048</text>
  <!-- title -->
  <text x="24" y="48" fill="#776e65" font-family="sans-serif" font-size="28" font-weight="700">Merge 2048</text>
  <text x="24" y="340" fill="#f65e3b" font-family="sans-serif" font-size="14" font-weight="700">COMBO × 4 !</text>
</svg>
